<svg width="135" height="42" viewBox="0 0 135 42" fill="none" xmlns="http://www.w3.org/2000/svg">
<path d="M7.42285 22.9121L21.3389 27.8193V34.6553L0.318359 25.7441V19.9824L21.3389 11.0713V17.9072L7.42285 22.9121ZM29.3711 41.0518H24.1221L37.208 2.45312H42.457L29.3711 41.0518ZM44.752 24.5967C44.752 20.4788 45.6715 17.1992 47.5107 14.7578C49.3662 12.3164 51.8971 11.0957 55.1035 11.0957C57.6751 11.0957 59.7992 12.056 61.4756 13.9766V0.5H68.5557V38H62.1836L61.8418 35.1924C60.084 37.3896 57.8216 38.4883 55.0547 38.4883C51.946 38.4883 49.4476 37.2676 47.5596 34.8262C45.6878 32.3685 44.752 28.9587 44.752 24.5967ZM51.8076 25.1094C51.8076 27.5833 52.2389 29.4795 53.1016 30.7979C53.9642 32.1162 55.2174 32.7754 56.8613 32.7754C59.0423 32.7754 60.5804 31.8558 61.4756 30.0166V19.5918C60.5967 17.7526 59.0749 16.833 56.9102 16.833C53.5085 16.833 51.8076 19.5918 51.8076 25.1094Z" fill="#651FFF"/>
<path d="M81.4707 38H74.3906V11.584H81.4707V38ZM73.9756 4.74805C73.9756 3.6901 74.3255 2.81934 75.0254 2.13574C75.7415 1.45215 76.71 1.11035 77.9307 1.11035C79.1351 1.11035 80.0954 1.45215 80.8115 2.13574C81.5277 2.81934 81.8857 3.6901 81.8857 4.74805C81.8857 5.82227 81.5195 6.70117 80.7871 7.38477C80.071 8.06836 79.1188 8.41016 77.9307 8.41016C76.7425 8.41016 75.7822 8.06836 75.0498 7.38477C74.3337 6.70117 73.9756 5.82227 73.9756 4.74805ZM97.1934 29.3818L102.101 11.584H109.474L100.562 38H93.8242L84.9131 11.584H92.2861L97.1934 29.3818ZM127.003 22.8389L112.818 17.8828V11.0957L134.083 20.0068V25.7441L112.818 34.6797V27.8682L127.003 22.8389Z" fill="#C4C4C4"/>
</svg>
