<svg width="183" height="108" viewBox="0 0 183 108" fill="none" xmlns="http://www.w3.org/2000/svg">
<path d="M29.9219 33.5078C28.6035 35.0866 26.7399 36.3154 24.3311 37.1943C21.9222 38.057 19.2529 38.4883 16.3232 38.4883C13.2471 38.4883 10.5452 37.821 8.21777 36.4863C5.90658 35.1354 4.11621 33.1823 2.84668 30.627C1.59342 28.0716 0.950521 25.0687 0.917969 21.6182V19.2012C0.917969 15.653 1.51204 12.585 2.7002 9.99707C3.90462 7.3929 5.62988 5.40723 7.87598 4.04004C10.1383 2.65658 12.7832 1.96484 15.8105 1.96484C20.026 1.96484 23.3219 2.97396 25.6982 4.99219C28.0745 6.99414 29.4824 9.91569 29.9219 13.7568H22.793C22.4674 11.7223 21.7432 10.2331 20.6201 9.28906C19.5133 8.34505 17.9834 7.87305 16.0303 7.87305C13.54 7.87305 11.6439 8.80892 10.3418 10.6807C9.03971 12.5524 8.38053 15.3356 8.36426 19.0303V21.3008C8.36426 25.028 9.07227 27.8438 10.4883 29.748C11.9043 31.6523 13.9795 32.6045 16.7139 32.6045C19.4645 32.6045 21.4258 32.0186 22.5977 30.8467V24.7188H15.9326V19.3232H29.9219V33.5078ZM50.2588 18.2002C49.2985 18.07 48.4521 18.0049 47.7197 18.0049C45.0505 18.0049 43.3008 18.9082 42.4707 20.7148V38H35.415V11.584H42.0801L42.2754 14.7334C43.6914 12.3083 45.6527 11.0957 48.1592 11.0957C48.9404 11.0957 49.6729 11.2015 50.3564 11.4131L50.2588 18.2002ZM68.252 38C67.9264 37.3652 67.6904 36.5758 67.5439 35.6318C65.835 37.5361 63.6133 38.4883 60.8789 38.4883C58.291 38.4883 56.1426 37.7396 54.4336 36.2422C52.7409 34.7448 51.8945 32.8568 51.8945 30.5781C51.8945 27.7786 52.9281 25.6302 54.9951 24.1328C57.0785 22.6354 60.0814 21.8786 64.0039 21.8623H67.251V20.3486C67.251 19.1279 66.9336 18.1514 66.2988 17.4189C65.6803 16.6865 64.6956 16.3203 63.3447 16.3203C62.1566 16.3203 61.2207 16.6051 60.5371 17.1748C59.8698 17.7445 59.5361 18.5257 59.5361 19.5186H52.4805C52.4805 17.9886 52.9525 16.5726 53.8965 15.2705C54.8405 13.9684 56.1751 12.9512 57.9004 12.2188C59.6257 11.4701 61.5625 11.0957 63.7109 11.0957C66.9661 11.0957 69.5459 11.9176 71.4502 13.5615C73.3708 15.1891 74.3311 17.484 74.3311 20.4463V31.8965C74.3473 34.403 74.6973 36.2992 75.3809 37.585V38H68.252ZM62.417 33.0928C63.4587 33.0928 64.4189 32.8649 65.2979 32.4092C66.1768 31.9372 66.8278 31.3105 67.251 30.5293V25.9883H64.6143C61.0824 25.9883 59.2025 27.209 58.9746 29.6504L58.9502 30.0654C58.9502 30.9443 59.2594 31.6686 59.8779 32.2383C60.4964 32.8079 61.3428 33.0928 62.417 33.0928ZM106.411 89.7002C106.411 88.8376 105.98 88.1621 105.117 87.6738C104.271 87.1693 102.904 86.7217 101.016 86.3311C94.7331 85.0127 91.5918 82.3434 91.5918 78.3232C91.5918 75.9795 92.5602 74.0264 94.4971 72.4639C96.4502 70.8851 98.9974 70.0957 102.139 70.0957C105.492 70.0957 108.169 70.8851 110.171 72.4639C112.189 74.0426 113.198 76.0934 113.198 78.6162H106.143C106.143 77.6071 105.817 76.777 105.166 76.126C104.515 75.4587 103.498 75.125 102.114 75.125C100.926 75.125 100.007 75.3936 99.3555 75.9307C98.7044 76.4678 98.3789 77.1514 98.3789 77.9814C98.3789 78.7627 98.7451 79.3975 99.4775 79.8857C100.226 80.3577 101.479 80.7728 103.237 81.1309C104.995 81.4727 106.476 81.8633 107.681 82.3027C111.408 83.6699 113.271 86.0381 113.271 89.4072C113.271 91.8161 112.238 93.7692 110.171 95.2666C108.104 96.7477 105.435 97.4883 102.163 97.4883C99.9495 97.4883 97.9801 97.0977 96.2549 96.3164C94.5459 95.5189 93.2031 94.4365 92.2266 93.0693C91.25 91.6859 90.7617 90.1966 90.7617 88.6016H97.4512C97.5163 89.8548 97.9801 90.8151 98.8428 91.4824C99.7054 92.1497 100.861 92.4834 102.31 92.4834C103.66 92.4834 104.678 92.2311 105.361 91.7266C106.061 91.2057 106.411 90.5303 106.411 89.7002ZM125.283 97H118.203V70.584H125.283V97ZM117.788 63.748C117.788 62.6901 118.138 61.8193 118.838 61.1357C119.554 60.4521 120.522 60.1104 121.743 60.1104C122.948 60.1104 123.908 60.4521 124.624 61.1357C125.34 61.8193 125.698 62.6901 125.698 63.748C125.698 64.8223 125.332 65.7012 124.6 66.3848C123.883 67.0684 122.931 67.4102 121.743 67.4102C120.555 67.4102 119.595 67.0684 118.862 66.3848C118.146 65.7012 117.788 64.8223 117.788 63.748ZM130.093 83.5967C130.093 79.5439 131.053 76.2806 132.974 73.8066C134.91 71.3327 137.515 70.0957 140.786 70.0957C143.683 70.0957 145.938 71.0885 147.549 73.0742L147.842 70.584H154.238V96.1211C154.238 98.4323 153.709 100.442 152.651 102.151C151.61 103.86 150.137 105.162 148.232 106.058C146.328 106.953 144.098 107.4 141.543 107.4C139.606 107.4 137.718 107.01 135.879 106.229C134.04 105.464 132.648 104.471 131.704 103.25L134.829 98.9531C136.587 100.923 138.719 101.907 141.226 101.907C143.097 101.907 144.554 101.403 145.596 100.394C146.637 99.4007 147.158 97.9847 147.158 96.1455V94.7295C145.531 96.5687 143.39 97.4883 140.737 97.4883C137.563 97.4883 134.992 96.2513 133.022 93.7773C131.069 91.2871 130.093 87.9912 130.093 83.8896V83.5967ZM137.148 84.1094C137.148 86.502 137.629 88.3818 138.589 89.749C139.549 91.0999 140.868 91.7754 142.544 91.7754C144.692 91.7754 146.23 90.9697 147.158 89.3584V78.25C146.214 76.6387 144.692 75.833 142.593 75.833C140.9 75.833 139.565 76.5247 138.589 77.9082C137.629 79.2917 137.148 81.3587 137.148 84.1094ZM166.177 70.584L166.396 73.6357C168.285 71.2757 170.815 70.0957 173.989 70.0957C176.789 70.0957 178.872 70.9176 180.239 72.5615C181.606 74.2054 182.306 76.6631 182.339 79.9346V97H175.283V80.1055C175.283 78.6081 174.958 77.5257 174.307 76.8584C173.656 76.1748 172.573 75.833 171.06 75.833C169.074 75.833 167.585 76.6794 166.592 78.3721V97H159.536V70.584H166.177Z" fill="#651FFF"/>
<path d="M103.53 25.0361C103.53 29.1051 102.603 32.3685 100.747 34.8262C98.9079 37.2676 96.4176 38.4883 93.2764 38.4883C90.6071 38.4883 88.4505 37.5605 86.8066 35.7051V48.1562H79.751V11.584H86.2939L86.5381 14.1719C88.2471 12.1211 90.4769 11.0957 93.2275 11.0957C96.4827 11.0957 99.0137 12.3001 100.82 14.709C102.627 17.1178 103.53 20.4382 103.53 24.6699V25.0361ZM96.4746 24.5234C96.4746 22.0658 96.0352 20.1696 95.1562 18.835C94.2936 17.5003 93.0322 16.833 91.3721 16.833C89.1585 16.833 87.6367 17.6794 86.8066 19.3721V30.1875C87.6693 31.929 89.2074 32.7998 91.4209 32.7998C94.79 32.7998 96.4746 30.041 96.4746 24.5234ZM114.81 14.4648C116.681 12.2188 119.033 11.0957 121.865 11.0957C127.594 11.0957 130.5 14.4242 130.581 21.0811V38H123.525V21.2764C123.525 19.7627 123.2 18.6478 122.549 17.9316C121.898 17.1992 120.815 16.833 119.302 16.833C117.235 16.833 115.737 17.6305 114.81 19.2256V38H107.754V0.5H114.81V14.4648ZM143.35 38H136.27V11.584H143.35V38ZM135.854 4.74805C135.854 3.6901 136.204 2.81934 136.904 2.13574C137.62 1.45215 138.589 1.11035 139.81 1.11035C141.014 1.11035 141.974 1.45215 142.69 2.13574C143.407 2.81934 143.765 3.6901 143.765 4.74805C143.765 5.82227 143.398 6.70117 142.666 7.38477C141.95 8.06836 140.998 8.41016 139.81 8.41016C138.621 8.41016 137.661 8.06836 136.929 7.38477C136.213 6.70117 135.854 5.82227 135.854 4.74805ZM160.171 32.7998C161.473 32.7998 162.531 32.4417 163.345 31.7256C164.159 31.0094 164.582 30.0573 164.614 28.8691H171.23C171.214 30.6595 170.726 32.3034 169.766 33.8008C168.805 35.2819 167.487 36.4375 165.811 37.2676C164.15 38.0814 162.311 38.4883 160.293 38.4883C156.517 38.4883 153.538 37.292 151.357 34.8994C149.176 32.4906 148.086 29.1702 148.086 24.9385V24.4746C148.086 20.4056 149.168 17.1585 151.333 14.7334C153.498 12.3083 156.468 11.0957 160.244 11.0957C163.548 11.0957 166.193 12.0397 168.179 13.9277C170.181 15.7995 171.198 18.2979 171.23 21.4229H164.614C164.582 20.0557 164.159 18.9489 163.345 18.1025C162.531 17.2399 161.457 16.8086 160.122 16.8086C158.478 16.8086 157.233 17.4108 156.387 18.6152C155.557 19.8034 155.142 21.7402 155.142 24.4258V25.1582C155.142 27.8763 155.557 29.8294 156.387 31.0176C157.217 32.2057 158.478 32.7998 160.171 32.7998ZM32.998 97V61.4531H43.9355C47.0605 61.4531 49.8519 62.1611 52.3096 63.5771C54.7835 64.9769 56.7122 66.9788 58.0957 69.583C59.4792 72.1709 60.1709 75.1169 60.1709 78.4209V80.0566C60.1709 83.3607 59.4873 86.2985 58.1201 88.8701C56.7692 91.4417 54.8568 93.4355 52.3828 94.8516C49.9089 96.2676 47.1175 96.9837 44.0088 97H32.998ZM40.3223 67.3857V91.1162H43.8623C46.7269 91.1162 48.916 90.1803 50.4297 88.3086C51.9434 86.4368 52.7165 83.7594 52.749 80.2764V78.3965C52.749 74.7832 52.0003 72.0488 50.5029 70.1934C49.0055 68.3216 46.8164 67.3857 43.9355 67.3857H40.3223ZM77.2119 97.4883C73.3382 97.4883 70.1807 96.3001 67.7393 93.9238C65.3141 91.5475 64.1016 88.3818 64.1016 84.4268V83.7432C64.1016 81.0902 64.6143 78.722 65.6396 76.6387C66.665 74.5391 68.1136 72.9277 69.9854 71.8047C71.8734 70.6654 74.0218 70.0957 76.4307 70.0957C80.0439 70.0957 82.8841 71.235 84.9512 73.5137C87.0345 75.7923 88.0762 79.0231 88.0762 83.2061V86.0869H71.2549C71.4827 87.8122 72.1663 89.1956 73.3057 90.2373C74.4613 91.279 75.918 91.7998 77.6758 91.7998C80.3939 91.7998 82.5179 90.8151 84.0479 88.8457L87.5146 92.7275C86.4567 94.2249 85.0244 95.3968 83.2178 96.2432C81.4111 97.0732 79.4092 97.4883 77.2119 97.4883ZM76.4062 75.8086C75.0065 75.8086 73.8672 76.2806 72.9883 77.2246C72.1257 78.1686 71.5723 79.5195 71.3281 81.2773H81.1426V80.7158C81.11 79.1533 80.6868 77.9489 79.873 77.1025C79.0592 76.2399 77.9036 75.8086 76.4062 75.8086Z" fill="#C4C4C4"/>
</svg>
