<svg width="141" height="58" viewBox="0 0 141 58" fill="none" xmlns="http://www.w3.org/2000/svg">
<path d="M9.5 12.9V33.9C9.5 36 10.0167 37.6167 11.05 38.75C12.0833 39.8833 13.6 40.45 15.6 40.45C17.6 40.45 19.1333 39.8833 20.2 38.75C21.2667 37.6167 21.8 36 21.8 33.9V12.9H30.35V33.85C30.35 36.9833 29.6833 39.6333 28.35 41.8C27.0167 43.9667 25.2167 45.6 22.95 46.7C20.7167 47.8 18.2167 48.35 15.45 48.35C12.6833 48.35 10.2 47.8167 8 46.75C5.83333 45.65 4.11667 44.0167 2.85 41.85C1.58333 39.65 0.95 36.9833 0.95 33.85V12.9H9.5ZM44.9039 12.9V48H36.3539V12.9H44.9039ZM70.15 0.499998L56.75 57.35H48.5L61.9 0.499998H70.15Z" fill="#651FFF"/>
<path d="M82.1563 12.9V33.9C82.1563 36 82.6729 37.6167 83.7063 38.75C84.7396 39.8833 86.2563 40.45 88.2563 40.45C90.2563 40.45 91.7896 39.8833 92.8563 38.75C93.9229 37.6167 94.4563 36 94.4563 33.9V12.9H103.006V33.85C103.006 36.9833 102.34 39.6333 101.006 41.8C99.6729 43.9667 97.8729 45.6 95.6063 46.7C93.3729 47.8 90.8729 48.35 88.1063 48.35C85.3396 48.35 82.8563 47.8167 80.6563 46.75C78.4896 45.65 76.7729 44.0167 75.5063 41.85C74.2396 39.65 73.6063 36.9833 73.6063 33.85V12.9H82.1563ZM130.51 48L123.36 37.25L117.06 48H107.36L118.61 30.15L107.11 12.9H117.06L124.11 23.5L130.31 12.9H140.01L128.86 30.6L140.46 48H130.51Z" fill="#C4C4C4"/>
</svg>
